<?xml version="1.0" encoding="UTF-8" standalone="no"?>
<!-- Creator: CorelDRAW 2020 (64-Bit) -->

<svg
   xmlns:dc="http://purl.org/dc/elements/1.1/"
   xmlns:cc="http://creativecommons.org/ns#"
   xmlns:rdf="http://www.w3.org/1999/02/22-rdf-syntax-ns#"
   xmlns:svg="http://www.w3.org/2000/svg"
   xmlns="http://www.w3.org/2000/svg"
   xmlns:sodipodi="http://sodipodi.sourceforge.net/DTD/sodipodi-0.dtd"
   xmlns:inkscape="http://www.inkscape.org/namespaces/inkscape"
   xml:space="preserve"
   width="211.66667mm"
   height="89.572495mm"
   version="1.1"
   style="clip-rule:evenodd;fill-rule:evenodd;image-rendering:optimizeQuality;shape-rendering:geometricPrecision;text-rendering:geometricPrecision"
   viewBox="0 0 21166.668 8957.2499"
   id="svg1121"
   sodipodi:docname="built-on-openbmc-logo.svg"
   inkscape:version="0.92.5 (2060ec1f9f, 2020-04-08)"><metadata
   id="metadata1125"><rdf:RDF><cc:Work
       rdf:about=""><dc:format>image/svg+xml</dc:format><dc:type
         rdf:resource="http://purl.org/dc/dcmitype/StillImage" /><dc:title></dc:title></cc:Work></rdf:RDF></metadata><sodipodi:namedview
   pagecolor="#ffffff"
   bordercolor="#666666"
   borderopacity="1"
   objecttolerance="10"
   gridtolerance="10"
   guidetolerance="10"
   inkscape:pageopacity="0"
   inkscape:pageshadow="2"
   inkscape:window-width="1848"
   inkscape:window-height="1136"
   id="namedview1123"
   showgrid="false"
   inkscape:zoom="0.39775311"
   inkscape:cx="-195.19606"
   inkscape:cy="280.05372"
   inkscape:window-x="72"
   inkscape:window-y="27"
   inkscape:window-maximized="1"
   inkscape:current-layer="svg1121" />
 <defs
   id="defs1065">
  <style
   type="text/css"
   id="style1063">
   <![CDATA[
    .fil1 {fill:#D3D800;fill-rule:nonzero}
    .fil2 {fill:#6E6D6C;fill-rule:nonzero}
    .fil0 {fill:#344D9A;fill-rule:nonzero}
   ]]>
  </style>
 </defs>
 <g
   id="Layer_x0020_1"
   transform="matrix(2.2484411,0,0,2.2484411,-15604.294,-19760.537)">
  <metadata
   id="CorelCorpID_0Corel-Layer" />
  <path
   class="fil0"
   d="m 10491.64,10635.52 495.93,-1150.73 h 1316.5 l -223.38,-169.26 -123.96,-94.05 h -1142.3 l -556.15,1289.69 c 93.66,8.82 176.56,55.24 233.36,124.35 z"
   id="path1068"
   inkscape:connector-curvature="0"
   style="fill:#344d9a;fill-rule:nonzero" />
  <path
   class="fil0"
   d="m 12394.68,12428.76 -125.52,-0.39 -1063.98,-1.51 c 17.25,41.06 26.88,86.36 26.88,133.56 0,45.65 -8.85,89.46 -25.36,129.33 l 1450.9,2.32 v -263.7 h -262.92 z"
   id="path1070"
   inkscape:connector-curvature="0"
   style="fill:#344d9a;fill-rule:nonzero" />
  <path
   class="fil0"
   d="m 12483.32,9968.79 -146.23,101.74 -946.53,2163.24 h 815.65 c -22.26,-45.65 -34.92,-97.09 -34.92,-151.2 0,-39.16 6.52,-76.8 18.8,-111.69 h -397.65 l 944.6,-2157.91 -14.18,-10.76 z"
   id="path1072"
   inkscape:connector-curvature="0"
   style="fill:#344d9a;fill-rule:nonzero" />
  <path
   class="fil0"
   d="m 11153,9679.78 -974.55,2302.23 -887.42,-2392.05 c -61.03,54.51 -141.25,87.53 -229.55,87.53 -6.52,0 -12.66,0 -18.8,-0.39 l 1119.64,3017.66 1165.3,-2752.05 h 462.53 l -923.5,2273.05 c 6.52,-0.39 13.05,-0.81 19.93,-0.81 87.56,0 167.74,33.05 228.81,86.75 l 1065.49,-2621.92 z"
   id="path1074"
   inkscape:connector-curvature="0"
   style="fill:#344d9a;fill-rule:nonzero" />
  <path
   class="fil0"
   d="m 8053.55,11970.87 398.04,-979.56 c -94.44,-2.29 -179.64,-42.61 -240.67,-106.29 l -548.11,1348.74 h 1039.42 l 74.83,194.98 H 7471.29 c 16.89,40.71 26.1,85.27 26.1,131.7 0,46.42 -9.21,90.94 -26.1,131.62 h 1688.07 l -275.97,-721.19 z"
   id="path1076"
   inkscape:connector-curvature="0"
   style="fill:#344d9a;fill-rule:nonzero" />
  <path
   class="fil0"
   d="m 7530.01,9679.78 v 0.74 h -473.64 v 262.19 h 1000.27 l -923.11,2272.66 c 6.13,-0.42 11.89,-0.42 18.41,-0.42 87.88,0 168.49,33.05 229.52,87.56 L 8447.34,9679.78 Z"
   id="path1078"
   inkscape:connector-curvature="0"
   style="fill:#344d9a;fill-rule:nonzero" />
  <path
   class="fil0"
   d="M 9737.03,12214.96 8622.39,9221.5 H 7533.08 c 11.89,34.54 18.42,71.79 18.42,110.52 0,54.9 -12.67,106.72 -35.7,152.76 h 923.89 l 1052.47,2827.69 c 62.16,-60.26 147.01,-97.51 240.28,-97.51 z"
   id="path1080"
   inkscape:connector-curvature="0"
   style="fill:#344d9a;fill-rule:nonzero" />
  <polygon
   class="fil0"
   points="12186.62,9175.79 12246.87,9221.48 12422.7,9355.04 12520.56,9429.16 12383.18,9824.87 12471.45,9763.45 12727.07,9585.37 12809.2,9647.92 13060.98,9838.66 12939.73,9437.59 13283.61,9198.05 12864.48,9189.62 12743.19,8788.55 12605.79,9184.22 "
   id="polygon1082"
   style="fill:#344d9a;fill-rule:nonzero" />
  <path
   class="fil0"
   d="m 8460.03,10562.59 c 46.08,0 83.68,37.25 83.68,83.29 0,46.07 -37.6,83.64 -83.68,83.64 -46.07,0 -83.29,-37.57 -83.29,-83.64 0,-46.04 37.22,-83.29 83.29,-83.29 z m 0,295.17 c 16.51,0 33.02,-1.91 48.37,-5.75 94.05,-21.91 163.9,-105.94 163.9,-206.13 0,-116.67 -95.21,-211.88 -212.27,-211.88 -116.69,0 -211.87,95.21 -211.87,211.88 0,33.41 7.65,64.87 22.26,92.88 v 0.39 c 34.15,70.24 106.32,118.61 189.61,118.61 z"
   id="path1084"
   inkscape:connector-curvature="0"
   style="fill:#344d9a;fill-rule:nonzero" />
  <path
   class="fil0"
   d="m 9145.16,9332.04 c 0,46.07 -37.61,83.67 -83.68,83.67 -46.04,0 -83.29,-37.6 -83.29,-83.67 0,-11.93 2.33,-23.04 6.92,-33.02 12.66,-29.53 42.22,-50.28 76.37,-50.28 13.05,0 25.33,3.07 36.48,8.44 28.01,13.44 47.2,41.84 47.2,74.86 z m -156.6,198.82 c 22.65,8.82 47.2,13.44 72.92,13.44 73.7,0 138.96,-38.03 176.96,-95.21 22.26,-33.38 35.31,-73.7 35.31,-117.05 0,-83.68 -49.14,-156.6 -120.12,-190.75 -27.66,-13.44 -59.13,-21.13 -92.15,-21.13 -116.66,0 -211.84,95.18 -211.84,211.88 0,57.57 23,109.74 59.87,147.74 21.87,22.68 49.1,40.32 79.05,51.08 z"
   id="path1086"
   inkscape:connector-curvature="0"
   style="fill:#344d9a;fill-rule:nonzero" />
  <path
   class="fil0"
   d="m 12433.43,12082.56 c 0,-46.07 37.26,-83.68 83.29,-83.68 46.08,0 83.68,37.61 83.68,83.68 0,46.08 -37.6,83.26 -83.68,83.26 -46.03,0 -83.29,-37.18 -83.29,-83.26 z m 83.29,-211.88 c -75.6,0 -142.41,39.9 -179.59,100.19 -20.75,32.21 -32.28,70.63 -32.28,111.69 0,59.09 24.59,112.82 63.71,151.2 8.08,7.69 16.9,15 26.1,21.52 34.58,24.56 76.77,39.16 122.06,39.16 54.16,0 103.65,-20.35 140.87,-53.76 43.78,-38.74 71.4,-95.18 71.4,-158.12 0,-117.05 -95.18,-211.88 -212.27,-211.88 z"
   id="path1088"
   inkscape:connector-curvature="0"
   style="fill:#344d9a;fill-rule:nonzero" />
  <path
   class="fil0"
   d="m 7151.93,12644.08 c -46.07,0 -83.68,-37.57 -83.68,-83.64 0,-46.08 37.61,-83.68 83.68,-83.68 46.07,0 83.68,37.6 83.68,83.68 0,46.07 -37.61,83.64 -83.68,83.64 z m 0,-295.52 c -28.01,0 -54.5,5.36 -79.06,15.7 -77.54,31.11 -132.82,107.1 -132.82,196.18 0,30.3 6.53,59.09 18.45,85.19 6.88,16.86 16.48,32.24 27.63,46.43 38.77,48.75 98.63,80.25 165.8,80.25 67.17,0 127.07,-31.5 165.84,-80.25 28.79,-36.06 46.04,-82.13 46.04,-131.62 0,-117.06 -95.18,-211.88 -211.88,-211.88 z"
   id="path1090"
   inkscape:connector-curvature="0"
   style="fill:#344d9a;fill-rule:nonzero" />
  <path
   class="fil0"
   d="m 10886.59,12644.08 c -46.04,0 -83.65,-37.57 -83.65,-83.64 0,-46.08 37.61,-83.68 83.65,-83.68 46.07,0 83.29,37.6 83.29,83.68 0,46.07 -37.22,83.64 -83.29,83.64 z m 0,-295.52 c -28.4,0 -55.63,5.75 -80.58,16.12 -77.18,31.47 -131.69,107.07 -131.69,195.76 0,30.3 6.56,58.7 17.68,84.8 6.91,15.74 15.77,30.34 26.49,43.75 38.38,50.69 99.41,83.32 168.1,83.32 67.98,0 128.62,-32.24 167.74,-82.55 27.63,-35.7 44.17,-80.57 44.17,-129.32 0,-117.06 -95.21,-211.88 -211.91,-211.88 z"
   id="path1092"
   inkscape:connector-curvature="0"
   style="fill:#344d9a;fill-rule:nonzero" />
  <path
   class="fil0"
   d="m 10308.95,10855.08 c 0,35.7 -22.69,66.39 -54.51,77.89 -9.24,3.49 -18.8,5.36 -29.17,5.36 -34.57,0 -64.49,-21.06 -77.16,-51.43 -4.23,-9.56 -6.52,-20.32 -6.52,-31.82 0,-46.08 37.6,-83.68 83.68,-83.68 46.07,0 83.68,37.6 83.68,83.68 z m -83.68,211.87 c 116.7,0 211.88,-95.18 211.88,-211.87 0,-23.82 -3.85,-46.43 -11.15,-67.56 -28.01,-84.07 -107.49,-144.75 -200.73,-144.75 -8.43,0 -16.51,0.43 -24.56,1.56 -105.58,11.88 -187.32,101.74 -187.32,210.75 0,116.69 94.83,211.87 211.88,211.87 z"
   id="path1094"
   inkscape:connector-curvature="0"
   style="fill:#344d9a;fill-rule:nonzero" />
  <path
   class="fil0"
   d="m 9648.75,12560.43 c 0,-46.07 37.6,-83.68 83.68,-83.68 34.53,0 64.48,21.49 77.15,51.83 4.23,9.56 6.53,20.32 6.53,31.85 0,46.07 -37.61,83.65 -83.68,83.65 -36.83,0 -68.3,-24.13 -79.45,-57.19 -2.72,-8.43 -4.23,-17.25 -4.23,-26.46 z m 140.86,-203.8 c -18.03,-5.4 -37.22,-8.08 -57.18,-8.08 -24.17,0 -47.59,4.2 -69.47,12.28 -5.78,1.9 -11.14,3.85 -16.51,6.14 -5.01,1.9 -9.98,4.58 -14.95,7.3 -35.7,19.19 -65.27,48.72 -84.85,84.42 -16.51,30.34 -26.1,64.88 -26.1,101.74 0,80.19 44.91,150.46 110.95,186.13 4.97,2.71 9.94,5.39 14.95,7.3 5.37,2.33 10.73,4.23 16.51,6.14 21.88,8.08 45.3,12.31 69.47,12.31 116.7,0 211.87,-95.18 211.87,-211.88 0,-97.12 -65.61,-178.86 -154.69,-203.8 z"
   id="path1096"
   inkscape:connector-curvature="0"
   style="fill:#344d9a;fill-rule:nonzero" />
  <path
   class="fil0"
   d="m 7206.05,9248.73 c 46.08,0 83.68,37.25 83.68,83.29 0,46.07 -37.6,83.68 -83.68,83.68 -46.07,0 -83.67,-37.61 -83.67,-83.68 0,-46.04 37.6,-83.29 83.67,-83.29 z m -32.24,292.88 c 10.37,1.9 21.13,2.68 32.24,2.68 11.12,0 21.88,-0.78 32.25,-2.68 29.56,-4.24 56.8,-15 81,-30.34 12.27,-7.66 23.42,-16.48 33.37,-26.5 40.32,-38.34 65.26,-92.85 65.26,-152.75 0,-40.67 -11.5,-78.28 -31.85,-110.52 -36.83,-60.65 -104.04,-101.36 -180.03,-101.36 -117.05,0 -211.87,95.22 -211.87,211.88 0,58.7 23.81,111.69 62.19,150.07 31.08,31.12 71.79,52.99 117.44,59.52 z"
   id="path1098"
   inkscape:connector-curvature="0"
   style="fill:#344d9a;fill-rule:nonzero" />
  <polygon
   class="fil1"
   points="13390.64,11270.13 16353.98,11270.13 16353.98,9152.19 13390.64,9152.19 "
   id="polygon1100"
   style="fill:#d3d800;fill-rule:nonzero" />
  <path
   class="fil2"
   d="m 14257.71,9952.22 -236.68,-57.61 c -40.28,-9.38 -103.15,-25.51 -103.15,-101.63 0,-87 92.33,-116.46 169.91,-116.46 176.6,0 192.72,103.09 197.96,147.18 h 112.65 v 181.08 c -41.31,-24.14 -90.12,-39.83 -140.69,-52.56 z m -128.51,579.21 c 50.79,0 175.77,-8.88 269.2,-77.09 v 51.74 h 188.52 l 0.21,-227.56 78.68,-81.51 171.36,309.07 h 226.21 l -259.63,-441.56 252.87,-278.28 h -231.55 l -237.94,273.04 v -524.54 h -188.73 v 82.98 c -57.42,-61.71 -150.58,-108.34 -295.79,-108.34 -314.4,0 -373.45,191.27 -373.45,298.31 0,147.1 79.1,228.85 216.88,262.27 l 195.29,48.09 c 103.01,25.43 176.67,44.17 176.67,120.37 0,101.75 -107.15,125.79 -203.47,125.79 -176.6,0 -206.02,-102.98 -206.02,-157.82 h -194.03 c 0,120.41 61.53,325.04 414.72,325.04 z"
   id="path1102"
   inkscape:connector-curvature="0"
   style="fill:#6e6d6c;fill-rule:nonzero" />
  <path
   class="fil2"
   d="m 13877.09,10955.83 c -19.29,0 -34.22,-1.65 -44.78,-4.96 v -57.81 c 7.92,3.62 15.59,5.42 23.05,5.42 14.11,0 24.39,-6.18 30.76,-18.54 l 1.33,-2.75 -135.58,-250.78 h 80.85 l 87.27,181.25 65.97,-181.25 h 77.68 l -117.05,270.16 c -5.45,12.82 -12.56,23.68 -21.33,32.57 -8.82,8.89 -17.64,15.57 -26.51,20.01 -8.84,4.48 -16.08,6.68 -21.66,6.68 z"
   id="path1104"
   inkscape:connector-curvature="0"
   style="fill:#6e6d6c;fill-rule:nonzero" />
  <path
   class="fil2"
   d="m 14267.63,10950.87 h -63.18 v -99.01 c -6.34,3.65 -16.33,8.26 -30,13.82 -13.69,5.54 -27.47,8.29 -41.35,8.29 -25.3,0 -45.24,-6.68 -59.84,-20.05 -14.64,-13.39 -21.96,-34.68 -21.96,-63.94 v -79.51 h 63.23 v 77.7 c 0,21.66 13.71,32.52 41.13,32.52 8.48,0 17.53,-1.86 27.25,-5.56 9.73,-3.72 16.88,-6.82 21.54,-9.33 v -95.33 h 63.18 z"
   id="path1106"
   inkscape:connector-curvature="0"
   style="fill:#6e6d6c;fill-rule:nonzero" />
  <path
   class="fil2"
   d="m 14471.97,10833.8 c -6.89,5.38 -21.27,9.76 -43.04,13.14 -9.03,1.54 -16.61,3.47 -22.7,5.81 -6.1,2.39 -10.99,5.93 -14.67,10.72 -3.7,4.76 -5.53,11.31 -5.53,19.6 0,9.92 3.05,17.2 9.18,21.88 6.09,4.65 12.84,6.99 20.28,6.99 9.47,0 18.57,-1.96 27.24,-5.86 8.69,-3.88 15.73,-9.44 21.13,-16.63 5.42,-7.21 8.11,-15.5 8.11,-24.87 z m 61.9,70.05 c 0,13.09 1.19,22.19 3.58,27.29 2.38,5.12 5.85,8.5 10.43,10.22 v 9.51 h -68.31 c -2.92,-9.06 -4.89,-18.61 -5.83,-28.55 -10.22,10.54 -21.01,18.97 -32.34,25.31 -11.3,6.34 -26.46,9.55 -45.43,9.55 -12.72,0 -24.67,-2.52 -35.81,-7.51 -11.16,-5 -20.16,-12.75 -27.05,-23.29 -6.85,-10.51 -10.29,-23.6 -10.29,-39.25 0,-15.08 2.96,-28.07 8.93,-38.95 5.95,-10.89 14.11,-19.41 24.49,-25.54 10.36,-6.13 22.6,-10.22 36.63,-12.29 l 56.93,-8.59 c 14.79,-1.99 22.17,-8.29 22.17,-18.94 0,-11.67 -3.97,-19.25 -11.9,-22.77 -7.95,-3.48 -17.84,-5.21 -29.69,-5.21 -13.99,0 -23.64,3.15 -28.95,9.48 -5.33,6.34 -8.67,14.3 -9.99,23.94 h -60.9 c 2.27,-23.11 8.57,-40.82 18.9,-53.12 10.35,-12.3 22.85,-20.54 37.53,-24.7 14.67,-4.17 31.69,-6.24 51.03,-6.24 14.26,0 28.55,1.86 42.92,5.62 14.32,3.75 26.74,10.82 37.23,21.18 10.48,10.38 15.72,24.6 15.72,42.69 z"
   id="path1108"
   inkscape:connector-curvature="0"
   style="fill:#6e6d6c;fill-rule:nonzero" />
  <path
   class="fil2"
   d="m 14795.73,10863.16 c -0.73,8.03 -2.84,17.08 -6.35,27.21 -3.47,10.11 -9.3,20.3 -17.42,30.59 -8.14,10.31 -19.33,18.93 -33.63,25.85 -14.32,6.89 -31.75,10.37 -52.36,10.37 -21.4,0 -39.41,-3.65 -54.06,-10.93 -14.65,-7.3 -26.07,-16.81 -34.38,-28.59 -8.27,-11.74 -14.13,-24.56 -17.57,-38.38 -3.47,-13.85 -5.21,-27.77 -5.21,-41.82 0,-26.63 4.04,-49.92 12.1,-69.9 8.06,-19.95 20.67,-35.52 37.9,-46.64 17.18,-11.17 38.95,-16.72 65.32,-16.72 15.04,0 30.31,2.69 45.72,8.1 15.39,5.4 28.85,14.98 40.36,28.73 11.52,13.74 18.19,32.18 20.03,55.29 h -64.08 c -4.65,-25.9 -18.68,-38.86 -42.03,-38.86 -12.3,0 -22.22,3.52 -29.77,10.52 -7.51,6.96 -12.81,15.7 -15.89,26.18 -3.02,10.47 -4.57,21.45 -4.57,32.93 0,13.03 0.89,24.97 2.65,35.9 1.78,10.91 6.28,20.7 13.54,29.31 7.23,8.59 18.08,12.89 32.59,12.89 9.65,0 17.71,-2.48 24.23,-7.51 6.5,-4.99 11.25,-10.82 14.26,-17.53 3.01,-6.69 4.55,-12.33 4.55,-16.99 z"
   id="path1110"
   inkscape:connector-curvature="0"
   style="fill:#6e6d6c;fill-rule:nonzero" />
  <polygon
   class="fil2"
   points="15026.79,10710.47 15026.79,10761.11 14954.85,10761.11 14954.85,10950.87 14891.64,10950.87 14891.64,10761.11 14819.81,10761.11 14819.81,10710.47 "
   id="polygon1112"
   style="fill:#6e6d6c;fill-rule:nonzero" />
  <polygon
   class="fil2"
   points="15124.18,10950.87 15060.97,10950.87 15060.97,10710.47 15124.18,10710.47 15124.18,10805.35 15214.11,10805.35 15214.11,10710.47 15277.29,10710.47 15277.29,10950.87 15214.11,10950.87 15214.11,10855.99 15124.18,10855.99 "
   id="polygon1114"
   style="fill:#6e6d6c;fill-rule:nonzero" />
  <polygon
   class="fil2"
   points="15333.98,10950.87 15333.98,10710.47 15397.21,10710.47 15397.21,10855.09 15482.57,10710.47 15550.31,10710.47 15550.31,10950.87 15487.12,10950.87 15487.12,10806.25 15401.71,10950.87 "
   id="polygon1116"
   style="fill:#6e6d6c;fill-rule:nonzero" />
  <polygon
   class="fil2"
   points="15670.24,10801.74 15749.78,10710.47 15828.74,10710.47 15742.47,10803.6 15832.39,10950.87 15755.61,10950.87 15696.38,10847.83 15670.24,10874.98 15670.24,10950.87 15607.01,10950.87 15607.01,10710.47 15670.24,10710.47 "
   id="polygon1118"
   style="fill:#6e6d6c;fill-rule:nonzero" />
 </g>
</svg>