<?xml version="1.0" encoding="UTF-8" standalone="no"?>
<!-- Generator: Adobe Illustrator 24.2.0, SVG Export Plug-In . SVG Version: 6.00 Build 0)  -->

<svg
   xmlns:dc="http://purl.org/dc/elements/1.1/"
   xmlns:cc="http://creativecommons.org/ns#"
   xmlns:rdf="http://www.w3.org/1999/02/22-rdf-syntax-ns#"
   xmlns:svg="http://www.w3.org/2000/svg"
   xmlns="http://www.w3.org/2000/svg"
   xmlns:sodipodi="http://sodipodi.sourceforge.net/DTD/sodipodi-0.dtd"
   xmlns:inkscape="http://www.inkscape.org/namespaces/inkscape"
   version="1.1"
   id="Layer_1"
   x="0px"
   y="0px"
   viewBox="0 0 239.99999 150.77756"
   xml:space="preserve"
   sodipodi:docname="login-company-logo.svg"
   width="240"
   height="150.77756"
   inkscape:version="0.92.5 (2060ec1f9f, 2020-04-08)"><metadata
   id="metadata1708"><rdf:RDF><cc:Work
       rdf:about=""><dc:format>image/svg+xml</dc:format><dc:type
         rdf:resource="http://purl.org/dc/dcmitype/StillImage" /><dc:title></dc:title></cc:Work></rdf:RDF></metadata><defs
   id="defs1706" /><sodipodi:namedview
   pagecolor="#ffffff"
   bordercolor="#666666"
   borderopacity="1"
   objecttolerance="10"
   gridtolerance="10"
   guidetolerance="10"
   inkscape:pageopacity="0"
   inkscape:pageshadow="2"
   inkscape:window-width="1848"
   inkscape:window-height="1136"
   id="namedview1704"
   showgrid="false"
   inkscape:zoom="0.52914798"
   inkscape:cx="-283.69406"
   inkscape:cy="75.488782"
   inkscape:window-x="72"
   inkscape:window-y="27"
   inkscape:window-maximized="1"
   inkscape:current-layer="Layer_1" />
<style
   type="text/css"
   id="style1665">
	.st0{fill:#274597;}
</style>
<g
   id="g1701"
   transform="matrix(0.92843327,0,0,0.92843327,-146.1354,-131.74468)">
	<g
   id="g1699">
		<path
   class="st0"
   d="m 302.1,217.1 20.2,-46.9 H 376 l -9.1,-6.9 -5.1,-3.8 h -46.6 l -22.7,52.6 c 3.9,0.3 7.3,2.2 9.6,5 z"
   id="path1667"
   inkscape:connector-curvature="0"
   style="fill:#274597" />
		<path
   class="st0"
   d="m 379.7,290.2 h -5.1 l -43.4,-0.1 c 0.7,1.7 1.1,3.5 1.1,5.4 0,1.9 -0.4,3.6 -1,5.3 l 59.1,0.1 v -10.7 z"
   id="path1669"
   inkscape:connector-curvature="0"
   style="fill:#274597" />
		<path
   class="st0"
   d="m 383.3,190 -6,4.1 -38.6,88.2 H 372 c -0.9,-1.9 -1.4,-4 -1.4,-6.2 0,-1.6 0.3,-3.1 0.8,-4.6 h -16.2 l 38.5,-87.9 -0.6,-0.4 z"
   id="path1671"
   inkscape:connector-curvature="0"
   style="fill:#274597" />
		<path
   class="st0"
   d="M 329.1,178.2 289.3,272 253.1,174.5 c -2.5,2.2 -5.8,3.6 -9.4,3.6 -0.3,0 -0.5,0 -0.8,0 l 45.6,123 47.5,-112.2 h 19 l -37.6,92.6 c 0.3,0 0.5,0 0.8,0 3.6,0 6.8,1.3 9.3,3.5 L 371,178.2 Z"
   id="path1673"
   inkscape:connector-curvature="0"
   style="fill:#274597" />
		<path
   class="st0"
   d="m 202.7,271.5 16.2,-39.9 c -3.8,-0.1 -7.3,-1.7 -9.8,-4.3 l -22.3,55 h 42.4 l 3.1,7.9 H 179 c 0.7,1.7 1.1,3.5 1.1,5.4 0,1.9 -0.4,3.7 -1.1,5.4 h 68.8 l -11.2,-29.4 h -33.9 z"
   id="path1675"
   inkscape:connector-curvature="0"
   style="fill:#274597" />
		<path
   class="st0"
   d="m 181.4,178.2 v 0 h -19.3 v 10.7 h 40.8 l -37.6,92.6 c 0.3,0 0.5,0 0.8,0 3.6,0 6.9,1.3 9.4,3.6 l 43.4,-106.9 z"
   id="path1677"
   inkscape:connector-curvature="0"
   style="fill:#274597" />
		<path
   class="st0"
   d="M 271.4,281.5 226,159.5 h -44.4 c 0.5,1.4 0.8,2.9 0.8,4.5 0,2.2 -0.5,4.3 -1.5,6.2 h 37.7 l 42.9,115.2 c 2.5,-2.5 6,-4 9.8,-4 h 0.1 z"
   id="path1679"
   inkscape:connector-curvature="0"
   style="fill:#274597" />
		<polygon
   class="st0"
   points="388.3,158 371.2,157.6 373.6,159.5 380.8,164.9 384.8,168 379.2,184.1 382.8,181.6 393.2,174.3 396.6,176.9 406.8,184.7 401.9,168.3 415.9,158.5 398.8,158.2 393.9,141.9 "
   id="polygon1681"
   style="fill:#274597" />
		<path
   class="st0"
   d="m 219.3,226.2 c 0.7,0 1.3,-0.1 2,-0.2 3.8,-0.9 6.7,-4.3 6.7,-8.4 0,-4.8 -3.9,-8.6 -8.7,-8.6 -4.8,0 -8.6,3.9 -8.6,8.6 0,1.4 0.3,2.6 0.9,3.8 v 0 c 1.4,2.8 4.3,4.8 7.7,4.8 z m 0,-12 c 1.9,0 3.4,1.5 3.4,3.4 0,1.9 -1.5,3.4 -3.4,3.4 -1.9,0 -3.4,-1.5 -3.4,-3.4 0,-1.9 1.5,-3.4 3.4,-3.4 z"
   id="path1683"
   inkscape:connector-curvature="0"
   style="fill:#274597" />
		<path
   class="st0"
   d="m 240.9,172.1 c 0.9,0.4 1.9,0.5 3,0.5 3,0 5.7,-1.5 7.2,-3.9 0.9,-1.4 1.4,-3 1.4,-4.8 0,-3.4 -2,-6.4 -4.9,-7.8 -1.1,-0.5 -2.4,-0.9 -3.8,-0.9 -4.8,0 -8.6,3.9 -8.6,8.6 0,2.3 0.9,4.5 2.4,6 0.9,1.1 2,1.9 3.3,2.3 z m 6.3,-8.1 c 0,1.9 -1.5,3.4 -3.4,3.4 -1.9,0 -3.4,-1.5 -3.4,-3.4 0,-0.5 0.1,-0.9 0.3,-1.3 0.5,-1.2 1.7,-2 3.1,-2 0.5,0 1,0.1 1.5,0.3 1.2,0.5 1.9,1.7 1.9,3 z"
   id="path1685"
   inkscape:connector-curvature="0"
   style="fill:#274597" />
		<path
   class="st0"
   d="m 384.6,267.5 c -3.1,0 -5.8,1.6 -7.3,4.1 -0.8,1.3 -1.3,2.9 -1.3,4.6 0,2.4 1,4.6 2.6,6.2 0.3,0.3 0.7,0.6 1.1,0.9 1.4,1 3.1,1.6 5,1.6 2.2,0 4.2,-0.8 5.7,-2.2 1.8,-1.6 2.9,-3.9 2.9,-6.4 0,-5 -3.9,-8.8 -8.7,-8.8 z m -3.3,8.6 c 0,-1.9 1.5,-3.4 3.4,-3.4 1.9,0 3.4,1.5 3.4,3.4 0,1.9 -1.5,3.4 -3.4,3.4 -1.9,0 -3.4,-1.5 -3.4,-3.4 z"
   id="path1687"
   inkscape:connector-curvature="0"
   style="fill:#274597" />
		<path
   class="st0"
   d="m 166,286.9 c -1.1,0 -2.2,0.2 -3.2,0.6 -3.2,1.3 -5.4,4.4 -5.4,8 0,1.2 0.3,2.4 0.8,3.5 0.3,0.7 0.7,1.3 1.1,1.9 1.6,2 4,3.3 6.8,3.3 2.8,0 5.2,-1.3 6.8,-3.3 1.2,-1.5 1.9,-3.3 1.9,-5.4 -0.2,-4.7 -4,-8.6 -8.8,-8.6 z m 0,12.1 c -1.9,0 -3.4,-1.5 -3.4,-3.4 0,-1.9 1.5,-3.4 3.4,-3.4 1.9,0 3.4,1.5 3.4,3.4 0,1.9 -1.5,3.4 -3.4,3.4 z"
   id="path1689"
   inkscape:connector-curvature="0"
   style="fill:#274597" />
		<path
   class="st0"
   d="m 318.2,286.9 c -1.2,0 -2.3,0.2 -3.3,0.7 -3.1,1.3 -5.4,4.4 -5.4,8 0,1.2 0.3,2.4 0.7,3.5 0.3,0.6 0.6,1.2 1.1,1.8 1.6,2.1 4.1,3.4 6.9,3.4 2.8,0 5.2,-1.3 6.8,-3.4 1.1,-1.5 1.8,-3.3 1.8,-5.3 0,-4.8 -3.8,-8.7 -8.6,-8.7 z m 0,12.1 c -1.9,0 -3.4,-1.5 -3.4,-3.4 0,-1.9 1.5,-3.4 3.4,-3.4 1.9,0 3.4,1.5 3.4,3.4 0,1.9 -1.5,3.4 -3.4,3.4 z"
   id="path1691"
   inkscape:connector-curvature="0"
   style="fill:#274597" />
		<path
   class="st0"
   d="m 291.3,234.7 c 4.8,0 8.6,-3.9 8.6,-8.6 0,-1 -0.2,-1.9 -0.5,-2.8 -1.1,-3.4 -4.4,-5.9 -8.2,-5.9 -0.3,0 -0.7,0 -1,0.1 -4.3,0.5 -7.6,4.1 -7.6,8.6 0,4.7 3.9,8.6 8.7,8.6 z m 3.4,-8.6 c 0,1.5 -0.9,2.7 -2.2,3.2 -0.4,0.1 -0.8,0.2 -1.2,0.2 -1.4,0 -2.6,-0.9 -3.1,-2.1 -0.2,-0.4 -0.3,-0.8 -0.3,-1.3 0,-1.9 1.5,-3.4 3.4,-3.4 1.8,0 3.4,1.5 3.4,3.4 z"
   id="path1693"
   inkscape:connector-curvature="0"
   style="fill:#274597" />
		<path
   class="st0"
   d="m 273.5,287.3 c -0.7,-0.2 -1.5,-0.3 -2.3,-0.3 -1,0 -1.9,0.2 -2.8,0.5 -0.2,0.1 -0.5,0.2 -0.7,0.3 -0.2,0.1 -0.4,0.2 -0.6,0.3 -1.5,0.8 -2.7,2 -3.5,3.4 -0.7,1.2 -1.1,2.6 -1.1,4.1 0,3.3 1.8,6.1 4.5,7.6 0.2,0.1 0.4,0.2 0.6,0.3 0.2,0.1 0.4,0.2 0.7,0.3 0.9,0.3 1.8,0.5 2.8,0.5 4.8,0 8.6,-3.9 8.6,-8.6 0.1,-4.1 -2.6,-7.4 -6.2,-8.4 z m -5.7,8.3 c 0,-1.9 1.5,-3.4 3.4,-3.4 1.4,0 2.6,0.9 3.1,2.1 0.2,0.4 0.3,0.8 0.3,1.3 0,1.9 -1.5,3.4 -3.4,3.4 -1.5,0 -2.8,-1 -3.2,-2.3 -0.2,-0.4 -0.2,-0.7 -0.2,-1.1 z"
   id="path1695"
   inkscape:connector-curvature="0"
   style="fill:#274597" />
		<path
   class="st0"
   d="m 166.9,172.5 c 0.4,0.1 0.9,0.1 1.3,0.1 0.5,0 0.9,0 1.3,-0.1 1.2,-0.2 2.3,-0.6 3.3,-1.2 0.5,-0.3 1,-0.7 1.4,-1.1 1.6,-1.6 2.7,-3.8 2.7,-6.2 0,-1.7 -0.5,-3.2 -1.3,-4.5 -1.5,-2.5 -4.2,-4.1 -7.3,-4.1 -4.8,0 -8.6,3.9 -8.6,8.6 0,2.4 1,4.6 2.5,6.1 1.2,1.3 2.8,2.2 4.7,2.4 z m 1.3,-11.9 c 1.9,0 3.4,1.5 3.4,3.4 0,1.9 -1.5,3.4 -3.4,3.4 -1.9,0 -3.4,-1.5 -3.4,-3.4 0,-1.9 1.5,-3.4 3.4,-3.4 z"
   id="path1697"
   inkscape:connector-curvature="0"
   style="fill:#274597" />
	</g>
</g>
</svg>